<svg width="358" height="79" viewBox="0 0 358 79" fill="none" xmlns="http://www.w3.org/2000/svg">
<path d="M1 1.39216H35.9327V11.2136H23.7652V55.2136H13.1676V33.2136V11.2136H1V1.39216Z" fill="#FFC642"/>
<path fill-rule="evenodd" clip-rule="evenodd" d="M47.7078 55.2136H37.1103L43.3903 11.2136C43.7828 10.035 44.8818 7.3636 46.1378 6.10645C47.3938 4.84931 48.2312 3.74931 48.4928 3.35645C49.147 2.70169 50.9264 1.39216 52.8104 1.39216H61.0529C61.9688 1.52311 64.1144 2.09931 65.3705 3.35645L68.118 6.10645C68.7721 6.89217 70.159 9.0136 70.473 11.2136L76.753 55.2136H66.1555L65.3705 43.035H48.4928L47.7078 55.2136ZM50.4553 32.4279H63.0154C63.0154 31.1707 61.7071 20.3803 61.0529 15.1422C61.0529 13.8326 60.2679 11.2136 57.1279 11.2136C53.9879 11.2136 52.9412 13.8326 52.8104 15.1422L50.4553 32.4279Z" fill="#FFC642"/>
<path d="M83.4256 1.39216V55.2136H93.6307V33.6065H103.051C103.574 33.6065 104.778 33.9993 105.406 35.5707C106.034 37.1422 109.592 49.3207 111.293 55.2136H121.498L114.433 29.6779C114.041 29.1541 113.491 27.7922 114.433 26.535C115.375 25.2779 119.536 9.2493 121.498 1.39216H111.293L105.406 20.2493C105.144 21.166 104.307 23.0779 103.051 23.3922C101.795 23.7065 96.2473 23.5231 93.6307 23.3922V1.39216H83.4256Z" fill="#FFC642"/>
<path fill-rule="evenodd" clip-rule="evenodd" d="M137.591 55.2136H126.993L133.273 11.2136C133.666 10.035 134.765 7.36358 136.021 6.10644C137.277 4.8493 138.114 3.7493 138.376 3.35644C139.03 2.70168 140.809 1.39215 142.693 1.39215H150.936C151.852 1.52311 153.998 2.0993 155.254 3.35644L158.001 6.10644C158.655 6.89215 160.042 9.01358 160.356 11.2136L166.636 55.2136H156.039L155.254 43.035H138.376L137.591 55.2136ZM140.338 32.4279H152.899C152.899 31.1707 151.59 20.3802 150.936 15.1422C150.936 13.8326 150.151 11.2136 147.011 11.2136C143.871 11.2136 142.824 13.8326 142.693 15.1422L140.338 32.4279Z" fill="#FFC642"/>
<path d="M183.514 55.2136H173.309V6.10645C173.57 4.53503 174.957 1.39216 178.411 1.39216C182.729 1.39216 193.326 19.4636 196.074 23.3922C196.597 24.4398 197.879 25.9065 198.821 23.3922C199.999 20.2493 212.951 -0.572124 216.092 1.39216C218.054 1.39216 220.802 3.35646 220.802 6.10645V55.2136H210.989V23.3922L201.569 37.1422C201.046 37.9279 199.606 39.4993 198.036 39.4993C196.074 39.4993 194.111 37.1422 194.111 37.1422C194.111 37.1422 186.523 27.9755 183.514 23.3922V55.2136Z" fill="#FFC642"/>
<path d="M274.182 1.39216V55.2136H284.387V33.6065H293.807C294.33 33.6065 295.534 33.9993 296.162 35.5707C296.79 37.1422 300.349 49.3207 302.05 55.2136H312.255L305.19 29.6779C304.797 29.1541 304.248 27.7922 305.19 26.535C306.132 25.2779 310.292 9.2493 312.255 1.39216H302.05L296.162 20.2493C295.9 21.166 295.063 23.0779 293.807 23.3922C292.551 23.7064 287.004 23.5231 284.387 23.3922V1.39216H274.182Z" fill="#FFC642"/>
<path fill-rule="evenodd" clip-rule="evenodd" d="M327.955 55.2136H317.357L323.637 11.2136C324.03 10.035 325.129 7.36359 326.385 6.10645C327.641 4.84931 328.478 3.7493 328.74 3.35645C329.394 2.70169 331.173 1.39216 333.057 1.39216H341.3C342.216 1.52311 344.361 2.0993 345.617 3.35645L348.365 6.10645C349.019 6.89216 350.406 9.01359 350.72 11.2136L357 55.2136H346.402L345.617 43.035H328.74L327.955 55.2136ZM330.702 32.4279H343.262C343.262 31.1707 341.954 20.3803 341.3 15.1422C341.3 13.8326 340.515 11.2136 337.375 11.2136C334.235 11.2136 333.188 13.8326 333.057 15.1422L330.702 32.4279Z" fill="#FFC642"/>
<path d="M52.8104 1.39216C50.9264 1.39216 49.147 2.70169 48.4928 3.35645C48.2312 3.74931 47.3938 4.84931 46.1378 6.10645C44.8818 7.3636 43.7828 10.035 43.3903 11.2136L37.1103 55.2136H47.7078L48.4928 43.035H65.3705L66.1555 55.2136H76.753M52.8104 1.39216C54.6944 1.39216 59.0904 1.39216 61.0529 1.39216M52.8104 1.39216H61.0529M61.0529 1.39216C61.9688 1.52311 64.1144 2.09931 65.3705 3.35645M65.3705 3.35645C66.6265 4.6136 67.7255 5.7136 68.118 6.10645M65.3705 3.35645L68.118 6.10645M68.118 6.10645C68.7721 6.89217 70.159 9.0136 70.473 11.2136M70.473 11.2136C70.787 13.4136 74.7905 41.4636 76.753 55.2136M70.473 11.2136L76.753 55.2136M220.802 6.10645C220.802 3.35646 218.054 1.39216 216.092 1.39216C212.951 -0.572124 199.999 20.2493 198.821 23.3922C197.879 25.9065 196.597 24.4398 196.074 23.3922C193.326 19.4636 182.729 1.39216 178.411 1.39216C174.957 1.39216 173.57 4.53503 173.309 6.10645V55.2136H183.514V23.3922C186.523 27.9755 194.111 37.1422 194.111 37.1422C194.111 37.1422 196.074 39.4993 198.036 39.4993C199.606 39.4993 201.046 37.9279 201.569 37.1422L210.989 23.3922V55.2136H220.802M220.802 6.10645C220.802 8.30645 220.802 39.7612 220.802 55.2136M220.802 6.10645V55.2136M1 1.39216H35.9327V11.2136H23.7652V55.2136H13.1676V33.2136V11.2136H1V1.39216ZM63.0154 32.4279H50.4553L52.8104 15.1422C52.9412 13.8326 53.9879 11.2136 57.1279 11.2136C60.2679 11.2136 61.0529 13.8326 61.0529 15.1422C61.7071 20.3803 63.0154 31.1707 63.0154 32.4279ZM83.4256 1.39216V55.2136H93.6307V33.6065H103.051C103.574 33.6065 104.778 33.9993 105.406 35.5707C106.034 37.1422 109.592 49.3207 111.293 55.2136H121.498L114.433 29.6779C114.041 29.1541 113.491 27.7922 114.433 26.535C115.375 25.2779 119.536 9.2493 121.498 1.39216H111.293L105.406 20.2493C105.144 21.166 104.307 23.0779 103.051 23.3922C101.795 23.7065 96.2473 23.5231 93.6307 23.3922V1.39216H83.4256ZM137.591 55.2136H126.993L133.273 11.2136C133.666 10.035 134.765 7.36358 136.021 6.10644C137.277 4.8493 138.114 3.7493 138.376 3.35644C139.03 2.70168 140.809 1.39215 142.693 1.39215H150.936C151.852 1.52311 153.998 2.0993 155.254 3.35644L158.001 6.10644C158.655 6.89215 160.042 9.01358 160.356 11.2136L166.636 55.2136H156.039L155.254 43.035H138.376L137.591 55.2136ZM152.899 32.4279H140.338L142.693 15.1422C142.824 13.8326 143.871 11.2136 147.011 11.2136C150.151 11.2136 150.936 13.8326 150.936 15.1422C151.59 20.3802 152.899 31.1707 152.899 32.4279ZM274.182 1.39216V55.2136H284.387V33.6065H293.807C294.33 33.6065 295.534 33.9993 296.162 35.5707C296.79 37.1422 300.349 49.3207 302.05 55.2136H312.255L305.19 29.6779C304.797 29.1541 304.248 27.7922 305.19 26.535C306.132 25.2779 310.292 9.2493 312.255 1.39216H302.05L296.162 20.2493C295.9 21.166 295.063 23.0779 293.807 23.3922C292.551 23.7064 287.004 23.5231 284.387 23.3922V1.39216H274.182ZM327.955 55.2136H317.357L323.637 11.2136C324.03 10.035 325.129 7.36359 326.385 6.10645C327.641 4.84931 328.478 3.7493 328.74 3.35645C329.394 2.70169 331.173 1.39216 333.057 1.39216H341.3C342.216 1.52311 344.361 2.0993 345.617 3.35645L348.365 6.10645C349.019 6.89216 350.406 9.01359 350.72 11.2136L357 55.2136H346.402L345.617 43.035H328.74L327.955 55.2136ZM343.262 32.4279H330.702L333.057 15.1422C333.188 13.8326 334.235 11.2136 337.375 11.2136C340.515 11.2136 341.3 13.8326 341.3 15.1422C341.954 20.3803 343.262 31.1707 343.262 32.4279Z" stroke="white"/>
<path fill-rule="evenodd" clip-rule="evenodd" d="M267.117 55.2143H227.082L233.687 9.1455C233.642 8.65588 233.902 7.38286 235.304 6.20778C236.706 5.03269 239.034 3.13652 240.022 2.33533C240.472 1.89022 241.775 1 243.392 1H250.537C251.166 1 252.747 1.26707 254.041 2.33533C255.335 3.40359 257.726 5.36207 258.759 6.20778C259.254 6.56386 260.296 7.64993 260.512 9.1455C260.727 10.6411 265.005 40.4812 267.117 55.2143ZM231.934 41.861V29.8431C232.797 28.7748 233.732 29.398 234.091 29.8431V41.861C233.417 42.9293 232.608 42.9293 231.934 41.861ZM243.123 42.3951V29.1754C243.985 28.1071 244.92 28.7303 245.279 29.1754V42.3951C244.74 43.4634 243.662 43.3299 243.123 42.3951ZM237.596 44.9323V26.7718C238.459 25.7036 239.393 26.3267 239.753 26.7718V44.9322C239.348 45.867 238 45.867 237.596 44.9323ZM248.784 40.2586V31.4455C249.647 30.3772 250.581 31.0004 250.941 31.4455V40.2586C250.267 41.594 249.189 41.1934 248.784 40.2586ZM254.446 45.867V25.8371C255.308 24.7688 256.243 25.392 256.603 25.8371V45.867C255.929 47.0688 254.76 46.5347 254.446 45.867ZM260.107 42.9293V28.6413C260.97 27.573 261.905 28.1962 262.264 28.6413V42.9292C261.59 43.9975 260.646 43.7305 260.107 42.9293Z" fill="#FFC642"/>
<path d="M243.392 1C241.775 1 240.472 1.89022 240.022 2.33533C239.034 3.13652 236.706 5.03269 235.304 6.20778C233.902 7.38286 233.642 8.65588 233.687 9.1455L227.082 55.2143H267.117C265.005 40.4812 260.727 10.6411 260.512 9.1455C260.296 7.64993 259.254 6.56386 258.759 6.20778C257.726 5.36207 255.335 3.40359 254.041 2.33533C252.747 1.26707 251.166 1 250.537 1M243.392 1C245.01 1 248.829 1 250.537 1M243.392 1H250.537M231.934 29.8431V41.861C232.608 42.9293 233.417 42.9293 234.091 41.861V29.8431C233.732 29.398 232.797 28.7748 231.934 29.8431ZM243.123 29.1754V42.3951C243.662 43.3299 244.74 43.4634 245.279 42.3951V29.1754C244.92 28.7303 243.985 28.1071 243.123 29.1754ZM237.596 26.7718V44.9323C238 45.867 239.348 45.867 239.753 44.9322V26.7718C239.393 26.3267 238.459 25.7036 237.596 26.7718ZM248.784 31.4455V40.2586C249.189 41.1934 250.267 41.594 250.941 40.2586V31.4455C250.581 31.0004 249.647 30.3772 248.784 31.4455ZM254.446 25.8371V45.867C254.76 46.5347 255.929 47.0688 256.603 45.867V25.8371C256.243 25.392 255.308 24.7688 254.446 25.8371ZM260.107 28.6413V42.9293C260.646 43.7305 261.59 43.9975 262.264 42.9292V28.6413C261.905 28.1962 260.97 27.573 260.107 28.6413Z" stroke="#FFC642"/>
<path d="M14.3452 78V72.1071M14.3452 72.1071V64.25H19.4478C20.6253 64.5119 22.9018 65.6643 22.5878 68.1786C22.1953 71.3214 21.4103 72.1071 19.4478 72.1071C17.8777 72.1071 15.3919 72.1071 14.3452 72.1071ZM38.2879 64.25H29.6528V70.9286M29.6528 70.9286H38.2879M29.6528 70.9286V78H38.2879M80.2857 64.25V78H88.5282M134.451 78C134.892 76.596 135.49 74.7618 136.135 72.8929M145.834 78C145.353 76.596 144.702 74.7618 144.004 72.8929M136.135 72.8929C137.594 68.6607 139.293 64.25 139.946 64.25C140.6 64.25 142.424 68.6607 144.004 72.8929M136.135 72.8929H144.004M160.356 66.2143C159.179 64.9048 156.588 63.0714 152.506 66.2143C150.544 69.3571 154.076 70.9286 156.431 70.9286C158.786 70.9286 160.356 71.3214 160.356 74.4643C160.356 77.6071 155.646 78 151.721 76.0357M166.636 64.25L172.131 72.1071M172.131 72.1071L176.841 64.25M172.131 72.1071V78M190.579 64.25H196.074M201.569 64.25H196.074M196.074 64.25V78M244.352 67C243.043 65.2976 239.328 62.9143 234.932 67C234.408 68.3095 233.676 71.6357 234.932 74.4643C236.502 78 243.174 78 244.352 74.4643M270.257 78C269.995 71.8452 269.865 60.8714 271.435 66.2143C271.435 67.4714 274.836 72.2381 276.537 74.4643C276.93 74.0714 277.793 73.05 278.107 72.1071C278.5 70.9286 282.425 61.5 282.425 66.2143C282.425 69.9857 282.425 75.6429 282.425 78M311.862 64.25V71.3214C311.862 73.2857 312.883 77.2143 316.965 77.2143C322.067 77.2143 322.46 72.8929 322.46 72.1071C322.46 71.4786 322.46 66.6071 322.46 64.25M64.1931 78V72.1071M64.1931 72.1071V64.25H69.2956C70.4731 64.5119 72.7496 65.6643 72.4356 68.1786C72.0431 71.3214 71.2581 72.1071 69.2956 72.1071H64.1931ZM104.621 64.25H95.9858V70.9286M95.9858 70.9286H104.621M95.9858 70.9286V78H104.621M128.956 64.25H120.321V70.9286M120.321 70.9286H128.956M120.321 70.9286V78H128.956M291.452 77.9999C291.19 71.8452 291.06 60.8714 292.63 66.2142C292.63 67.4714 296.031 72.238 297.732 74.4642C298.125 74.0714 298.988 73.0499 299.302 72.1071C299.695 70.9285 303.62 61.4999 303.62 66.2142V77.9999M329.132 64.25H334.627M334.627 64.25H340.123M334.627 64.25V78M355.038 64.25H346.403V70.9286M346.403 70.9286H355.038M346.403 70.9286V78H355.038M50.4555 64.25C48.6238 64.5119 44.9604 66.2143 44.9604 70.9286C44.9604 75.6429 48.6238 76.8214 50.4555 76.8214C52.2871 76.5595 55.9505 75.0143 55.9505 70.9286C55.9505 65.8214 53.5955 64.25 50.4555 64.25ZM212.559 64.25C210.727 64.5119 207.064 66.2143 207.064 70.9286C207.064 75.6429 210.727 76.8214 212.559 76.8214C214.391 76.5595 218.054 75.0143 218.054 70.9286C218.054 65.8214 215.699 64.25 212.559 64.25ZM256.519 64.25C254.688 64.5119 251.024 66.2143 251.024 70.9286C251.024 75.6429 254.688 76.8214 256.519 76.8214C258.351 76.5595 262.014 75.0143 262.014 70.9286C262.014 65.8214 259.659 64.25 256.519 64.25Z" stroke="black"/>
</svg>
