<svg width="16" height="16" viewBox="0 0 16 16" fill="none" xmlns="http://www.w3.org/2000/svg">
<g clip-path="url(#clip0_250_3622)">
<path fill-rule="evenodd" clip-rule="evenodd" d="M0.666504 8.00033C0.666504 3.95024 3.94975 0.666992 7.99984 0.666992C12.0499 0.666992 15.3332 3.95024 15.3332 8.00033C15.3332 12.0504 12.0499 15.3337 7.99984 15.3337C3.94975 15.3337 0.666504 12.0504 0.666504 8.00033ZM7.99984 14.0003C4.68613 14.0003 1.99984 11.314 1.99984 8.00033C1.99984 4.68662 4.68613 2.00033 7.99984 2.00033C11.3135 2.00033 13.9998 4.68662 13.9998 8.00033C13.9998 11.314 11.3135 14.0003 7.99984 14.0003Z" fill="#878787"/>
<path fill-rule="evenodd" clip-rule="evenodd" d="M7.99984 14.0003C4.68613 14.0003 1.99984 11.314 1.99984 8.00033C1.99984 4.68662 4.68613 2.00033 7.99984 2.00033C11.3135 2.00033 13.9998 4.68662 13.9998 8.00033C13.9998 11.314 11.3135 14.0003 7.99984 14.0003ZM10.9259 5.27306C11.177 5.54241 11.1621 5.96426 10.8928 6.21529L8.94203 8.03344L10.7602 9.98419C11.0112 10.2535 10.9964 10.6754 10.727 10.9264C10.4577 11.1775 10.0358 11.1626 9.78481 10.8933L7.96665 8.94252L6.0159 10.7607C5.74656 11.0117 5.32471 10.9969 5.07368 10.7275C4.82264 10.4582 4.83748 10.0363 5.10683 9.78529L7.05758 7.96714L5.23943 6.01639C4.98839 5.74705 5.00323 5.3252 5.27258 5.07416C5.54192 4.82313 5.96377 4.83797 6.2148 5.10731L8.03295 7.05807L9.98371 5.23991C10.253 4.98888 10.6749 5.00372 10.9259 5.27306Z" fill="#878787"/>
</g>
<defs>
<clipPath id="clip0_250_3622">
<rect width="16" height="16" fill="white"/>
</clipPath>
</defs>
</svg>
