<svg width="16" height="16" viewBox="0 0 16 16" fill="none" xmlns="http://www.w3.org/2000/svg">
<path fill-rule="evenodd" clip-rule="evenodd" d="M11.2457 10.3052C12.8749 8.21286 12.7277 5.18575 10.8043 3.26229C8.72148 1.1795 5.3446 1.1795 3.2618 3.26229C1.17901 5.34509 1.17901 8.72197 3.2618 10.8048C5.18526 12.7282 8.21237 12.8754 10.3047 11.2462C10.3137 11.2564 10.3231 11.2664 10.3329 11.2762L13.1613 14.1046C13.4216 14.3649 13.8438 14.3649 14.1041 14.1046C14.3645 13.8442 14.3645 13.4221 14.1041 13.1618L11.2757 10.3334C11.2659 10.3236 11.2559 10.3142 11.2457 10.3052ZM9.86147 4.2051C11.4236 5.7672 11.4236 8.29986 9.86147 9.86196C8.29937 11.4241 5.76671 11.4241 4.20461 9.86196C2.64252 8.29986 2.64252 5.7672 4.20461 4.2051C5.76671 2.643 8.29937 2.643 9.86147 4.2051Z" fill="#6E6E6E"/>
</svg>
