<svg width="82" height="110" viewBox="0 0 82 110" fill="none" xmlns="http://www.w3.org/2000/svg">
<path fill-rule="evenodd" clip-rule="evenodd" d="M81 109H1L14.1987 17.2266C14.1089 16.2512 14.6296 13.7153 17.431 11.3744C20.2323 9.0335 24.8833 5.25616 26.8586 3.6601C27.7565 2.7734 30.3603 1 33.5926 1H47.8687C49.1257 1 52.2862 1.53202 54.8721 3.6601C57.4579 5.78818 62.2346 9.68966 64.2997 11.3744C65.2873 12.0837 67.3704 14.2473 67.8013 17.2266C68.2323 20.2059 76.78 79.6502 81 109ZM10.697 82.399V58.4581C12.4209 56.33 14.2884 57.5714 15.0067 58.4581V82.399C13.6599 84.5271 12.0438 84.5271 10.697 82.399ZM33.0539 83.4631V57.1281C34.7778 55 36.6453 56.2414 37.3636 57.1281V83.463C36.2862 85.5911 34.1313 85.3251 33.0539 83.4631ZM22.0101 88.5172V52.3399C23.734 50.2118 25.6016 51.4532 26.3199 52.3399V88.5172C25.5118 90.3793 22.8182 90.3793 22.0101 88.5172ZM44.367 79.2069V61.6502C46.0909 59.5222 47.9585 60.7635 48.6768 61.6502V79.2068C47.33 81.867 45.1751 81.069 44.367 79.2069ZM55.6801 90.3793V50.4778C57.404 48.3498 59.2716 49.5911 59.9899 50.4778V90.3793C58.6431 92.7733 56.3086 91.7094 55.6801 90.3793ZM66.9933 84.5271V56.064C68.7172 53.936 70.5847 55.1773 71.303 56.064V84.527C69.9562 86.6552 68.0707 86.1232 66.9933 84.5271Z" fill="#FFC642"/>
<path d="M33.5926 1C30.3603 1 27.7565 2.7734 26.8586 3.6601C24.8833 5.25616 20.2323 9.0335 17.431 11.3744C14.6296 13.7153 14.1089 16.2512 14.1987 17.2266L1 109H81C76.78 79.6502 68.2323 20.2059 67.8013 17.2266C67.3704 14.2473 65.2873 12.0837 64.2997 11.3744C62.2346 9.68966 57.4579 5.78818 54.8721 3.6601C52.2862 1.53202 49.1257 1 47.8687 1M33.5926 1C36.8249 1 44.4568 1 47.8687 1M33.5926 1H47.8687M10.697 58.4581V82.399C12.0438 84.5271 13.6599 84.5271 15.0067 82.399V58.4581C14.2884 57.5714 12.4209 56.33 10.697 58.4581ZM33.0539 57.1281V83.4631C34.1313 85.3251 36.2862 85.5911 37.3636 83.463V57.1281C36.6453 56.2414 34.7778 55 33.0539 57.1281ZM22.0101 52.3399V88.5172C22.8182 90.3793 25.5118 90.3793 26.3199 88.5172V52.3399C25.6016 51.4532 23.734 50.2118 22.0101 52.3399ZM44.367 61.6502V79.2069C45.1751 81.069 47.33 81.867 48.6768 79.2068V61.6502C47.9585 60.7635 46.0909 59.5222 44.367 61.6502ZM55.6801 50.4778V90.3793C56.3086 91.7094 58.6431 92.7733 59.9899 90.3793V50.4778C59.2716 49.5911 57.404 48.3498 55.6801 50.4778ZM66.9933 56.064V84.5271C68.0707 86.1232 69.9562 86.6552 71.303 84.527V56.064C70.5847 55.1773 68.7172 53.936 66.9933 56.064Z" stroke="#FFC642"/>
</svg>
