<?xml version="1.0" standalone="no"?>
<!DOCTYPE svg PUBLIC "-//W3C//DTD SVG 20010904//EN"
 "http://www.w3.org/TR/2001/REC-SVG-20010904/DTD/svg10.dtd">
<svg version="1.0" xmlns="http://www.w3.org/2000/svg"
 width="149.000000pt" height="149.000000pt" viewBox="0 0 149.000000 149.000000"
 preserveAspectRatio="xMidYMid meet">
<metadata>
Created by potrace 1.14, written by Peter Selinger 2001-2017
</metadata>
<g transform="translate(0.000000,149.000000) scale(0.100000,-0.100000)"
fill="#000000" stroke="none">
<path d="M607 1479 c-40 -11 -203 -146 -220 -183 -8 -17 -18 -62 -22 -101 -4
-38 -8 -72 -10 -75 -1 -3 -6 -27 -9 -55 -7 -52 -52 -374 -61 -435 -3 -19 -10
-62 -15 -95 -11 -76 -19 -132 -25 -181 -3 -22 -14 -99 -25 -172 -11 -73 -21
-136 -21 -140 -6 -38 -22 -37 546 -37 357 0 545 3 546 10 2 13 2 15 -5 55 -3
19 -8 58 -11 85 -3 28 -8 59 -10 71 -3 12 -9 52 -14 90 -6 38 -13 85 -15 104
-3 19 -22 148 -41 285 -20 138 -38 261 -40 275 -2 14 -7 50 -10 80 -4 30 -8
57 -10 60 -2 3 -6 30 -9 60 -8 76 -13 95 -28 123 -13 25 -154 143 -198 167
-28 15 -246 22 -293 9z m380 -667 c8 -5 12 -81 12 -279 0 -237 -2 -272 -15
-277 -9 -3 -20 -4 -25 0 -10 6 -13 547 -2 557 8 9 15 9 30 -1z m-449 -276 c2
-255 -1 -282 -35 -254 -10 8 -13 68 -13 253 0 133 3 245 7 249 4 4 14 5 23 4
13 -3 15 -37 18 -252z m613 154 c0 -27 0 -95 0 -150 0 -215 1 -210 -21 -210
-11 0 -21 6 -21 13 -4 35 -5 374 -1 385 2 6 13 12 23 12 16 0 19 -8 20 -50z
m-461 -155 c0 -162 -2 -184 -17 -189 -9 -4 -20 -1 -24 6 -4 6 -8 91 -8 187 0
176 3 196 36 184 10 -4 13 -44 13 -188z m-309 168 c1 -5 3 -81 3 -171 2 -145
0 -165 -15 -173 -14 -7 -19 -4 -25 14 -9 27 -8 312 1 327 7 12 34 14 36 3z
m464 -175 c0 -106 -3 -123 -17 -126 -27 -5 -34 26 -33 141 1 81 5 111 15 117
29 18 35 -8 35 -132z"/>
</g>
</svg>
